<svg width="90" height="56" viewBox="0 0 90 56" fill="none" xmlns="http://www.w3.org/2000/svg">
<g clip-path="url(#clip0_88_774)">
<path d="M42.2015 5.24262C42.0881 5.12892 41.9533 5.0387 41.805 4.97715C41.6566 4.9156 41.4976 4.88391 41.337 4.88391C41.1764 4.88391 41.0174 4.9156 40.869 4.97715C40.7207 5.0387 40.586 5.12892 40.4725 5.24262L25.8206 19.8945C25.7073 20.0081 25.6175 20.1429 25.5563 20.2913C25.4952 20.4396 25.4638 20.5985 25.4641 20.759V37.8529C25.4641 38.1767 25.5928 38.4873 25.8217 38.7162C26.0507 38.9452 26.3613 39.0739 26.6851 39.0739H37.674C37.9979 39.0739 38.3084 38.9452 38.5374 38.7162C38.7664 38.4873 38.895 38.1767 38.895 37.8529V28.0849H43.779V37.8529C43.779 38.1767 43.9076 38.4873 44.1366 38.7162C44.3656 38.9452 44.6762 39.0739 45 39.0739H55.9889C56.3127 39.0739 56.6233 38.9452 56.8523 38.7162C57.0813 38.4873 57.2099 38.1767 57.2099 37.8529V20.759C57.2102 20.5985 57.1789 20.4396 57.1177 20.2913C57.0565 20.1429 56.9667 20.0081 56.8534 19.8945L53.5469 16.5905V8.54907C53.5469 8.22524 53.4183 7.91468 53.1893 7.6857C52.9603 7.45672 52.6498 7.32808 52.3259 7.32808H49.884C49.5601 7.32808 49.2496 7.45672 49.0206 7.6857C48.7916 7.91468 48.663 8.22524 48.663 8.54907V11.7066L42.2015 5.24262ZM27.9061 36.6319V21.2645L41.337 7.83357L54.7679 21.2645V36.6319H46.221V26.8639C46.221 26.5401 46.0923 26.2296 45.8634 26.0006C45.6344 25.7716 45.3238 25.643 45 25.643H37.674C37.3502 25.643 37.0396 25.7716 36.8107 26.0006C36.5817 26.2296 36.453 26.5401 36.453 26.8639V36.6319H27.9061Z" fill="#E6E6E6" fill-opacity="0.6"/>
<path d="M49.5273 5.24262C49.4139 5.12892 49.2792 5.0387 49.1308 4.97715C48.9825 4.9156 48.8235 4.88391 48.6629 4.88391C48.5023 4.88391 48.3432 4.9156 48.1949 4.97715C48.0466 5.0387 47.9118 5.12892 47.7984 5.24262L33.1465 19.8945C33.0332 20.0081 32.9434 20.1429 32.8822 20.2913C32.821 20.4396 32.7897 20.5985 32.79 20.759V37.8529C32.79 38.1767 32.9186 38.4873 33.1476 38.7162C33.3766 38.9452 33.6871 39.0739 34.011 39.0739H44.9999C45.3237 39.0739 45.6343 38.9452 45.8633 38.7162C46.0923 38.4873 46.2209 38.1767 46.2209 37.8529V28.0849H51.1049V37.8529C51.1049 38.1767 51.2335 38.4873 51.4625 38.7162C51.6915 38.9452 52.002 39.0739 52.3259 39.0739H63.3148C63.6386 39.0739 63.9492 38.9452 64.1782 38.7162C64.4071 38.4873 64.5358 38.1767 64.5358 37.8529V20.759C64.5361 20.5985 64.5047 20.4396 64.4435 20.2913C64.3824 20.1429 64.2926 20.0081 64.1792 19.8945L60.8728 16.5905V8.54907C60.8728 8.22524 60.7442 7.91468 60.5152 7.6857C60.2862 7.45672 59.9756 7.32808 59.6518 7.32808H57.2098C56.886 7.32808 56.5754 7.45672 56.3464 7.6857C56.1175 7.91468 55.9888 8.22524 55.9888 8.54907V11.7066L49.5273 5.24262ZM35.232 36.6319V21.2645L48.6629 7.83357L62.0938 21.2645V36.6319H53.5468V26.8639C53.5468 26.5401 53.4182 26.2296 53.1892 26.0006C52.9602 25.7716 52.6497 25.643 52.3259 25.643H44.9999C44.6761 25.643 44.3655 25.7716 44.1365 26.0006C43.9075 26.2296 43.7789 26.5401 43.7789 26.8639V36.6319H35.232Z" fill="#FF9505"/>
</g>
<path d="M1.68164 45.0962C1.40365 45.1144 1.08236 45.1418 0.717773 45.1782C0.667643 45.1782 0.635742 45.1668 0.62207 45.144C0.608398 45.1213 0.599284 45.0825 0.594727 45.0278L0.499023 43.7563C0.503581 43.7017 0.517253 43.6675 0.540039 43.6538C0.567383 43.6356 0.608398 43.6219 0.663086 43.6128C1.11426 43.6037 1.50618 43.5946 1.83887 43.5854C2.17611 43.5763 2.46777 43.5695 2.71387 43.5649C2.96452 43.5604 3.17643 43.5581 3.34961 43.5581C3.52734 43.5535 3.68001 43.5513 3.80762 43.5513C3.93978 43.5467 4.05599 43.5444 4.15625 43.5444H4.44336C5.80143 43.5444 6.80859 43.8999 7.46484 44.6108C8.22591 45.4312 8.60645 46.7938 8.60645 48.6987C8.60645 50.4989 8.22135 51.8797 7.45117 52.8413C6.71745 53.7482 5.70345 54.2017 4.40918 54.2017C3.05111 54.2017 1.81152 54.1447 0.69043 54.0308C0.612956 54.0262 0.57194 53.9715 0.567383 53.8667L0.649414 52.6567C0.658529 52.5838 0.694987 52.5405 0.758789 52.5269L1.50391 52.5815L1.68164 45.0962ZM3.09668 52.6704C3.47949 52.6978 3.75749 52.7114 3.93066 52.7114H4.36816C5.29329 52.7114 5.97233 52.3901 6.40527 51.7476C6.84277 51.105 7.06152 50.1457 7.06152 48.8696C7.06152 46.755 6.55339 45.5063 5.53711 45.1235C5.20898 45.0005 4.91276 44.939 4.64844 44.939C4.19271 44.939 3.7028 44.9549 3.17871 44.9868L3.09668 52.6704ZM10.2676 54.1538C10.1947 54.1538 10.1582 54.0991 10.1582 53.9897V52.8071C10.1582 52.7114 10.2083 52.6636 10.3086 52.6636H11.1084V48.0356L10.1309 48.1177C10.0579 48.1131 10.0124 48.0584 9.99414 47.9536L9.84375 46.4976C9.85742 46.411 9.91211 46.3631 10.0078 46.354L12.1064 46.2104C12.1885 46.2104 12.2295 46.2629 12.2295 46.3677L12.127 47.4956C12.6419 46.9259 13.3984 46.5477 14.3965 46.3608C14.6973 46.3016 14.9867 46.272 15.2646 46.272C15.5426 46.272 15.6862 46.3449 15.6953 46.4907L15.7773 48.9927C15.7773 49.0747 15.7432 49.1203 15.6748 49.1294L14.3896 49.2251C14.335 49.2251 14.2917 49.216 14.2598 49.1978C14.2279 49.1795 14.2119 49.1317 14.2119 49.0542V47.8442C13.6195 47.8944 13.0977 48.0129 12.6465 48.1997L12.5713 52.7114L13.7607 52.6226C13.8337 52.6226 13.8724 52.6613 13.877 52.7388L13.9521 53.8667C13.9385 53.9578 13.8883 54.008 13.8018 54.0171L10.2676 54.1538ZM22.1279 54.0308C21.5446 54.1766 20.804 54.2495 19.9062 54.2495C18.9902 54.2495 18.3249 53.967 17.9102 53.4019C17.4772 52.814 17.2607 51.882 17.2607 50.606C17.2607 49.2661 17.4453 48.2658 17.8145 47.605C18.2337 46.8758 18.9036 46.4315 19.8242 46.272C20.1432 46.2173 20.4987 46.1899 20.8906 46.1899C21.7337 46.1899 22.3467 46.3973 22.7295 46.812C23.1123 47.2267 23.3037 47.8602 23.3037 48.7124C23.3037 49.2684 23.2057 49.6968 23.0098 49.9976C22.946 50.0933 22.8594 50.2026 22.75 50.3257C22.6406 50.4442 22.4378 50.5513 22.1416 50.647C21.8499 50.7381 21.515 50.8088 21.1367 50.8589C20.5488 50.9318 19.7399 50.9683 18.71 50.9683C18.7692 51.7384 18.9583 52.2625 19.2773 52.5405C19.5189 52.7593 19.9382 52.8687 20.5352 52.8687C21.0957 52.8687 21.654 52.8208 22.21 52.7251L22.2305 52.3696C22.235 52.3149 22.2464 52.2785 22.2646 52.2603C22.2874 52.242 22.3262 52.2261 22.3809 52.2124L23.3652 51.9937C23.4655 51.9937 23.5225 52.0369 23.5361 52.1235C23.5498 52.201 23.5635 52.3537 23.5771 52.5815C23.5908 52.8049 23.6045 52.9985 23.6182 53.1626C23.6318 53.3267 23.6432 53.4839 23.6523 53.6343L23.6797 54.0171C23.6842 54.131 23.6865 54.2267 23.6865 54.3042C23.6865 54.4409 23.5863 54.5207 23.3857 54.5435L22.251 54.6802C22.1507 54.6802 22.1006 54.63 22.1006 54.5298L22.1279 54.0308ZM21.4922 49.5532C21.6107 49.4484 21.6813 49.3276 21.7041 49.1909C21.7314 49.0496 21.7451 48.8856 21.7451 48.6987C21.7451 48.5073 21.7269 48.3387 21.6904 48.1929C21.6585 48.047 21.6016 47.9217 21.5195 47.8169C21.3418 47.5981 21.0524 47.4888 20.6514 47.4888C19.8766 47.4888 19.3594 47.6847 19.0996 48.0767C18.8535 48.4412 18.7168 49.0701 18.6895 49.9634C20.2799 49.9406 21.2142 49.8039 21.4922 49.5532ZM29.4492 46.2036C30.7982 46.2036 31.4727 47.0422 31.4727 48.7192C31.4727 49.1157 31.4635 49.6284 31.4453 50.2573L31.3975 51.5972C31.3883 51.866 31.377 52.1213 31.3633 52.3628L31.3359 53.0122L31.7461 52.978C31.8965 52.9689 32.0674 52.9552 32.2588 52.937C32.3545 52.937 32.4023 52.9803 32.4023 53.0669L32.2793 54.147C32.2656 54.229 32.2155 54.2746 32.1289 54.2837L30.1533 54.4067C30.0895 54.4067 30.0576 54.3566 30.0576 54.2563L30.1533 53.4565C29.3923 54.0444 28.5651 54.3384 27.6719 54.3384C26.9746 54.3384 26.4004 54.1356 25.9492 53.73C25.4707 53.3016 25.2314 52.7251 25.2314 52.0005C25.2314 51.0571 25.5573 50.394 26.209 50.0112C26.7832 49.674 27.7288 49.5054 29.0459 49.5054C29.3193 49.5054 29.611 49.5122 29.9209 49.5259C29.9255 49.4074 29.9277 49.298 29.9277 49.1978V48.938C29.9277 48.0493 29.5381 47.605 28.7588 47.605C28.3532 47.605 27.8519 47.728 27.2549 47.9741L27.2822 48.2339C27.2913 48.3205 27.2959 48.3888 27.2959 48.439C27.2959 48.5392 27.2458 48.5894 27.1455 48.5894L25.9902 48.6099C25.9082 48.5962 25.8626 48.5461 25.8535 48.4595L25.7373 46.5044C25.7373 46.395 25.7874 46.3335 25.8877 46.3198L27.0293 46.1694C27.125 46.1694 27.1729 46.2196 27.1729 46.3198V46.8872C27.9886 46.4315 28.7474 46.2036 29.4492 46.2036ZM28.1504 53.0464C28.6745 53.0464 29.251 52.896 29.8799 52.5952C29.889 52.2944 29.8936 51.964 29.8936 51.604C29.8981 51.2394 29.9049 50.8794 29.9141 50.5239C28.7155 50.5239 27.8838 50.6265 27.4189 50.8315C26.9906 51.0229 26.7764 51.342 26.7764 51.7886C26.7764 52.6271 27.2344 53.0464 28.1504 53.0464ZM39.7305 47.2358C40.487 46.5477 41.2298 46.2036 41.959 46.2036C43.0299 46.2036 43.6702 46.7163 43.8799 47.7417C43.9482 48.0789 43.9824 48.4071 43.9824 48.7261C43.9824 49.0405 43.9779 49.355 43.9688 49.6694C43.9642 49.9839 43.9551 50.3211 43.9414 50.6812L43.9004 51.7681C43.8867 52.1326 43.873 52.4631 43.8594 52.7593L44.8506 52.6978C44.9463 52.6978 44.9941 52.7524 44.9941 52.8618L44.8574 54.0034C44.8574 54.0581 44.8438 54.0923 44.8164 54.106C44.7936 54.1242 44.7549 54.1356 44.7002 54.1401L42.6562 54.0854C42.5514 54.0854 42.499 54.0353 42.499 53.9351C42.5127 53.4338 42.5195 52.978 42.5195 52.5679L42.5332 51.4878C42.5332 51.1825 42.5332 50.8953 42.5332 50.6265V49.4302C42.5332 48.8377 42.4854 48.4526 42.3896 48.2749C42.2985 48.0972 42.1868 47.9764 42.0547 47.9126C41.9225 47.8442 41.7311 47.8101 41.4805 47.8101C41.043 47.8101 40.5531 47.9559 40.0107 48.2476C40.0426 48.4709 40.0586 48.717 40.0586 48.9858C40.0586 49.2502 40.0563 49.5418 40.0518 49.8608C40.0472 50.1753 40.0404 50.508 40.0312 50.8589C40.0267 51.2098 40.0199 51.5607 40.0107 51.9116C40.0062 52.2625 39.9993 52.577 39.9902 52.855L40.8857 52.8345C40.9814 52.8345 41.0293 52.8892 41.0293 52.9985L40.9609 53.9351C40.9564 53.9897 40.9427 54.0262 40.9199 54.0444C40.8971 54.0581 40.8584 54.0672 40.8037 54.0718L38.2676 54.0171C38.1719 54.0171 38.124 53.967 38.124 53.8667L38.0898 52.9097C38.099 52.814 38.1491 52.7661 38.2402 52.7661L38.6641 52.8003C38.6732 52.1714 38.6777 51.6063 38.6777 51.105V49.4302C38.6777 48.8468 38.6253 48.4618 38.5205 48.2749C38.4202 48.0881 38.3018 47.9604 38.165 47.8921C38.0283 47.8192 37.8483 47.7827 37.625 47.7827C37.0781 47.7827 36.4971 48.0129 35.8818 48.4731V52.7251L36.5996 52.6909C36.6771 52.6909 36.7158 52.7297 36.7158 52.8071L36.791 53.8667C36.7728 53.967 36.7227 54.0171 36.6406 54.0171L33.8379 53.9487C33.7331 53.9487 33.6807 53.894 33.6807 53.7847L33.6123 52.7388C33.6305 52.6431 33.6807 52.5952 33.7627 52.5952H34.4258V48.0972H33.3799C33.2887 48.0972 33.2432 48.0425 33.2432 47.9331L33.2295 46.6274C33.2477 46.5454 33.3024 46.4976 33.3936 46.4839L35.1162 46.5454C35.1982 46.5545 35.2507 46.6069 35.2734 46.7026L35.4717 47.6118C36.3421 46.7186 37.1921 46.272 38.0215 46.272C38.8555 46.272 39.4251 46.5933 39.7305 47.2358ZM54.0859 52.4312C54.1589 52.4312 54.1953 52.4744 54.1953 52.561L54.1064 53.8462C54.0973 53.9373 54.0426 53.9829 53.9424 53.9829L50.7705 54.0308C50.693 54.0308 50.652 53.9761 50.6475 53.8667L50.6611 52.6567C50.6611 52.5884 50.6976 52.5451 50.7705 52.5269L51.502 52.5474V45.1577L50.5928 45.1646C50.5426 45.1646 50.5107 45.1532 50.4971 45.1304C50.4834 45.1076 50.4743 45.0688 50.4697 45.0142L50.4082 43.811C50.4128 43.7563 50.4264 43.7222 50.4492 43.7085C50.4766 43.6903 50.5176 43.6766 50.5723 43.6675L53.9834 43.7222C54.0654 43.7313 54.1064 43.7837 54.1064 43.8794L54.0791 45.0825C54.0791 45.1828 54.0267 45.2329 53.9219 45.2329L53.0264 45.1851L53.0195 48.2065L56.7246 48.1587V45.0347L55.7881 45.0073C55.738 45.0073 55.7061 44.9959 55.6924 44.9731C55.6787 44.9504 55.6696 44.9116 55.665 44.8569L55.7061 43.7222C55.7152 43.6265 55.7699 43.5786 55.8701 43.5786L59.0625 43.5649C59.1126 43.5695 59.1445 43.5832 59.1582 43.606C59.1719 43.6242 59.181 43.6629 59.1855 43.7222L59.2744 44.9458C59.2744 45.0461 59.222 45.0962 59.1172 45.0962L58.249 45.0757L58.2285 52.6704L59.2812 52.6362C59.3542 52.6362 59.3906 52.6795 59.3906 52.7661L59.3018 53.9829C59.2926 54.0741 59.238 54.1196 59.1377 54.1196L55.8975 54.0308C55.82 54.0308 55.779 53.9761 55.7744 53.8667L55.7881 52.7251C55.7881 52.6567 55.8245 52.6134 55.8975 52.5952L56.7246 52.6567V49.5396L53.0127 49.5669L53.0059 52.5063L54.0859 52.4312ZM60.9014 50.23C60.9014 49.4507 60.9652 48.8035 61.0928 48.2886C61.2249 47.769 61.4186 47.3543 61.6738 47.0444C62.1478 46.4839 62.9202 46.2036 63.9912 46.2036C64.7386 46.2036 65.2832 46.2788 65.625 46.4292C65.9714 46.5796 66.2425 46.7505 66.4385 46.9419C66.639 47.1333 66.8099 47.3794 66.9512 47.6802C67.2337 48.2954 67.375 49.0701 67.375 50.0044C67.375 50.9341 67.3089 51.6519 67.1768 52.1577C67.0492 52.6636 66.8555 53.0692 66.5957 53.3745C66.1126 53.9305 65.3311 54.2085 64.251 54.2085C63.1208 54.2085 62.2982 53.9351 61.7832 53.3882C61.1953 52.7684 60.9014 51.7157 60.9014 50.23ZM65.5566 52.356C65.6934 52.1737 65.7959 51.9185 65.8643 51.5903C65.9326 51.2622 65.9668 50.8612 65.9668 50.3872C65.9668 49.9132 65.9417 49.5304 65.8916 49.2388C65.8415 48.9471 65.7708 48.7056 65.6797 48.5142C65.5931 48.3182 65.4883 48.1655 65.3652 48.0562C65.2422 47.9422 65.1077 47.8579 64.9619 47.8032C64.7432 47.7212 64.4538 47.6802 64.0938 47.6802C63.7337 47.6802 63.4466 47.7075 63.2324 47.7622C63.0182 47.8169 62.8405 47.9331 62.6992 48.1108C62.4303 48.4572 62.2959 49.1545 62.2959 50.2026C62.2959 51.6929 62.6969 52.5337 63.499 52.7251C63.7451 52.7843 64.0117 52.814 64.2988 52.814C64.5859 52.814 64.832 52.7843 65.0371 52.7251C65.2467 52.6613 65.4199 52.5382 65.5566 52.356ZM75.2637 47.2358C76.0202 46.5477 76.763 46.2036 77.4922 46.2036C78.5632 46.2036 79.2035 46.7163 79.4131 47.7417C79.4814 48.0789 79.5156 48.4071 79.5156 48.7261C79.5156 49.0405 79.5111 49.355 79.502 49.6694C79.4974 49.9839 79.4883 50.3211 79.4746 50.6812L79.4336 51.7681C79.4199 52.1326 79.4062 52.4631 79.3926 52.7593L80.3838 52.6978C80.4795 52.6978 80.5273 52.7524 80.5273 52.8618L80.3906 54.0034C80.3906 54.0581 80.377 54.0923 80.3496 54.106C80.3268 54.1242 80.2881 54.1356 80.2334 54.1401L78.1895 54.0854C78.0846 54.0854 78.0322 54.0353 78.0322 53.9351C78.0459 53.4338 78.0527 52.978 78.0527 52.5679L78.0664 51.4878C78.0664 51.1825 78.0664 50.8953 78.0664 50.6265V49.4302C78.0664 48.8377 78.0186 48.4526 77.9229 48.2749C77.8317 48.0972 77.7201 47.9764 77.5879 47.9126C77.4557 47.8442 77.2643 47.8101 77.0137 47.8101C76.5762 47.8101 76.0863 47.9559 75.5439 48.2476C75.5758 48.4709 75.5918 48.717 75.5918 48.9858C75.5918 49.2502 75.5895 49.5418 75.585 49.8608C75.5804 50.1753 75.5736 50.508 75.5645 50.8589C75.5599 51.2098 75.5531 51.5607 75.5439 51.9116C75.5394 52.2625 75.5326 52.577 75.5234 52.855L76.4189 52.8345C76.5146 52.8345 76.5625 52.8892 76.5625 52.9985L76.4941 53.9351C76.4896 53.9897 76.4759 54.0262 76.4531 54.0444C76.4303 54.0581 76.3916 54.0672 76.3369 54.0718L73.8008 54.0171C73.7051 54.0171 73.6572 53.967 73.6572 53.8667L73.623 52.9097C73.6322 52.814 73.6823 52.7661 73.7734 52.7661L74.1973 52.8003C74.2064 52.1714 74.2109 51.6063 74.2109 51.105V49.4302C74.2109 48.8468 74.1585 48.4618 74.0537 48.2749C73.9535 48.0881 73.835 47.9604 73.6982 47.8921C73.5615 47.8192 73.3815 47.7827 73.1582 47.7827C72.6113 47.7827 72.0303 48.0129 71.415 48.4731V52.7251L72.1328 52.6909C72.2103 52.6909 72.249 52.7297 72.249 52.8071L72.3242 53.8667C72.306 53.967 72.2559 54.0171 72.1738 54.0171L69.3711 53.9487C69.2663 53.9487 69.2139 53.894 69.2139 53.7847L69.1455 52.7388C69.1637 52.6431 69.2139 52.5952 69.2959 52.5952H69.959V48.0972H68.9131C68.8219 48.0972 68.7764 48.0425 68.7764 47.9331L68.7627 46.6274C68.7809 46.5454 68.8356 46.4976 68.9268 46.4839L70.6494 46.5454C70.7314 46.5545 70.7839 46.6069 70.8066 46.7026L71.0049 47.6118C71.8753 46.7186 72.7253 46.272 73.5547 46.272C74.3887 46.272 74.9583 46.5933 75.2637 47.2358ZM86.8369 54.0308C86.2536 54.1766 85.513 54.2495 84.6152 54.2495C83.6992 54.2495 83.0339 53.967 82.6191 53.4019C82.1862 52.814 81.9697 51.882 81.9697 50.606C81.9697 49.2661 82.1543 48.2658 82.5234 47.605C82.9427 46.8758 83.6126 46.4315 84.5332 46.272C84.8522 46.2173 85.2077 46.1899 85.5996 46.1899C86.4427 46.1899 87.0557 46.3973 87.4385 46.812C87.8213 47.2267 88.0127 47.8602 88.0127 48.7124C88.0127 49.2684 87.9147 49.6968 87.7188 49.9976C87.6549 50.0933 87.5684 50.2026 87.459 50.3257C87.3496 50.4442 87.1468 50.5513 86.8506 50.647C86.5589 50.7381 86.224 50.8088 85.8457 50.8589C85.2578 50.9318 84.4489 50.9683 83.4189 50.9683C83.4782 51.7384 83.6673 52.2625 83.9863 52.5405C84.2279 52.7593 84.6471 52.8687 85.2441 52.8687C85.8047 52.8687 86.363 52.8208 86.9189 52.7251L86.9395 52.3696C86.944 52.3149 86.9554 52.2785 86.9736 52.2603C86.9964 52.242 87.0352 52.2261 87.0898 52.2124L88.0742 51.9937C88.1745 51.9937 88.2314 52.0369 88.2451 52.1235C88.2588 52.201 88.2725 52.3537 88.2861 52.5815C88.2998 52.8049 88.3135 52.9985 88.3271 53.1626C88.3408 53.3267 88.3522 53.4839 88.3613 53.6343L88.3887 54.0171C88.3932 54.131 88.3955 54.2267 88.3955 54.3042C88.3955 54.4409 88.2952 54.5207 88.0947 54.5435L86.96 54.6802C86.8597 54.6802 86.8096 54.63 86.8096 54.5298L86.8369 54.0308ZM86.2012 49.5532C86.3197 49.4484 86.3903 49.3276 86.4131 49.1909C86.4404 49.0496 86.4541 48.8856 86.4541 48.6987C86.4541 48.5073 86.4359 48.3387 86.3994 48.1929C86.3675 48.047 86.3105 47.9217 86.2285 47.8169C86.0508 47.5981 85.7614 47.4888 85.3604 47.4888C84.5856 47.4888 84.0684 47.6847 83.8086 48.0767C83.5625 48.4412 83.4258 49.0701 83.3984 49.9634C84.9889 49.9406 85.9232 49.8039 86.2012 49.5532Z" fill="white"/>
<defs>
<clipPath id="clip0_88_774">
<rect width="39.0717" height="39.0717" fill="white" transform="translate(25.4641)"/>
</clipPath>
</defs>
</svg>
